<svg xmlns="http://www.w3.org/2000/svg" viewBox="0 0 216.41 228.86">
  <defs>
    <style>
      .a {
        fill: #25b5f4;
      }
    </style>
  </defs>
  <title>Asset 3</title>
  <g>
    <g>
      <path class="a" d="M101.44,139c-8.48-6.79-20.21-10.75-35.07-10.75-9.33,0-17.59,2.4-21.33,4.54l-1.33-.53L45.58,124l1.33-8.25h61.32V76.69H19.46L4.53,157.44l34.12,9c2.67-3.2,8.26-7.5,18.39-7.5,13.06,0,21.06,6.93,21.06,17.6s-7.73,17.61-20.79,17.61c-12,0-18.66-5.61-21.06-11.21L0,192c5.33,20,25.86,36.82,58.64,36.82,20.71,0,36.66-6.67,46.75-17.84-8.34-8.92-13.23-21.2-13.23-36.86C92.16,161.68,95.45,150.43,101.44,139Z"/>
      <path class="a" d="M167.6,130.65c-8.26,0-14.93,1.6-19.46,5.6l-.8-.7,45-58.87H148.14l-28.79,35.65c-7.34,9.41-13.39,18.08-17.91,26.71,10.84,8.68,16.38,22,16.38,37.52,0,13.65-4.34,25.49-12.43,34.45,11.13,11.91,28.38,17.84,48.34,17.84,37.32,0,61.58-20.55,61.58-51.77C215.31,148.54,193.19,130.65,167.6,130.65ZM154.54,193.1c-13.06,0-21.06-6.4-21.06-17.35,0-11.47,8-17.61,21.06-17.61,13.33,0,21.06,6.14,21.06,17.35S167.6,193.1,154.54,193.1Z"/>
    </g>
    <g>
      <path class="a" d="M1.43.61h12.9L28.5,23.45,42.68.61H55.51V54.76H43.88V19.67L28.5,42.42h-.31L13.06,19.91V54.76H1.43Z"/>
      <path class="a" d="M69.21.61H80.85V54.76H69.21Z"/>
      <path class="a" d="M94.54.61h12.58L121.3,23.45,135.48.61h12.47V54.76H136.31V19.67l-15,22.75H121L106.18,19.91V54.76H94.54Z"/>
      <path class="a" d="M158.9,28.08v-.15C158.9,12.58,171.09,0,187.73,0s28.68,12.42,28.68,27.78v.15c0,15.35-12.19,27.93-28.83,27.93S158.9,43.44,158.9,28.08Zm45.19,0v-.15c0-9.26-7-17-16.51-17s-16.36,7.56-16.36,16.82v.15c0,9.26,7,17,16.51,17S204.09,37.34,204.09,28.08Z"/>
    </g>
  </g>
</svg>
